<?xml version="1.0" encoding="UTF-8" standalone="no"?>
<!DOCTYPE svg PUBLIC "-//W3C//DTD SVG 1.1//EN" "http://www.w3.org/Graphics/SVG/1.1/DTD/svg11.dtd">
<!-- Animated using aniGen version 0.8.1 Quality of Life - http://anigen.org -->
<svg xmlns:dc="http://purl.org/dc/elements/1.1/" xmlns:cc="http://creativecommons.org/ns#" xmlns:rdf="http://www.w3.org/1999/02/22-rdf-syntax-ns#" xmlns:svg="http://www.w3.org/2000/svg" xmlns="http://www.w3.org/2000/svg" width="164.81383mm" height="18.969591mm" viewBox="0 0 164.81383 18.969591" version="1.1" preserveAspectRatio="xMidYMid" xmlns:xlink="http://www.w3.org/1999/xlink" xmlns:sodipodi="http://sodipodi.sourceforge.net/DTD/sodipodi-0.dtd" xmlns:inkscape="http://www.inkscape.org/namespaces/inkscape" xmlns:anigen="http://www.anigen.org/namespace" anigen:version="0.8.1" id="lac-header-main">
  <sodipodi:namedview bordercolor="#666666" borderopacity="1" inkscape:cx="10.826214420580094" inkscape:cy="-17.09448500205897" inkscape:zoom="4" id="sodipodi:namedview1532"/>
  
  <g transform="translate(174.6331,-150.68782)" id="lac-header">
    <path d="m -174.13412,153.47571 h 1.51481 q 0.19603,0 0.37425,0.0178 0.19603,0 0.28514,0.12475 0.0891,0.12475 0.0891,0.3386 0,0.19604 0,0.42772 v 1.62173 5.39985 1.05145 q 0,0.14257 -0.0178,0.28514 0,0.12475 0.0356,0.2495 v 0.17821 q 0,0.12475 0,0.2495 0.0178,0.10693 0.0535,0.19604 0.12475,0.23167 0.49899,0.23167 0.37425,0 0.73068,0 h 3.45732 q 0.14257,0 0.35643,0 0.21385,-0.0178 0.40989,0 0.19603,0 0.35642,0.0356 0.17822,0.0357 0.23168,0.10693 0.0891,0.10693 0.0891,0.26732 0,0.16039 0,0.33861 v 0.81977 q 0,0.14257 0,0.26732 0.0178,0.12475 -0.0178,0.21386 -0.0713,0.14257 -0.17821,0.19603 -0.0891,0.0713 -0.26732,0.0713 -0.17821,0 -0.3386,0 h -1.26531 -4.82957 -1.28313 q -0.2495,0 -0.44553,-0.0178 -0.17821,-0.0356 -0.26732,-0.17823 -0.0713,-0.10692 -0.0713,-0.26732 0,-0.17821 0,-0.3386 v -1.24749 -4.72264 -4.0276 -1.12274 q 0,-0.1604 0,-0.32079 0.0178,-0.16039 0.0713,-0.2495 0.0713,-0.12474 0.28514,-0.17821 0.0356,-0.0178 0.0713,0 0.0356,0 0.0713,-0.0178 z" style="font-style:normal;font-variant:normal;font-weight:bold;font-stretch:normal;font-size:17.8212738px;line-height:11.13833237px;font-family:'Alte Haas Grotesk';-inkscape-font-specification:'Alte Haas Grotesk, Bold';font-variant-ligatures:normal;font-variant-caps:normal;font-variant-numeric:normal;font-feature-settings:normal;text-align:start;letter-spacing:0px;word-spacing:0px;writing-mode:lr-tb;text-anchor:start;fill:#000000;fill-opacity:1;stroke:none;stroke-width:0.44553334px;stroke-linecap:butt;stroke-linejoin:miter;stroke-opacity:1" id="path116"/>
    <path style="font-style:normal;font-variant:normal;font-weight:bold;font-stretch:normal;font-size:17.8212738px;line-height:11.13833237px;font-family:'Alte Haas Grotesk';-inkscape-font-specification:'Alte Haas Grotesk, Bold';font-variant-ligatures:normal;font-variant-caps:normal;font-variant-numeric:normal;font-feature-settings:normal;text-align:start;letter-spacing:0px;word-spacing:0px;writing-mode:lr-tb;text-anchor:start;fill:#000000;fill-opacity:1;stroke:none;stroke-width:0.44553334px;stroke-linecap:butt;stroke-linejoin:miter;stroke-opacity:1" d="m -161.74836,165.20211 q 0,0.35642 -0.0178,0.60592 -0.0178,0.2495 -0.32079,0.33861 -0.10692,0.0356 -0.23167,0.0356 -0.12475,-0.0178 -0.26732,-0.0178 h -0.99799 q -0.16039,0 -0.32078,-0.0178 -0.14258,-0.0178 -0.21386,-0.10693 -0.10693,-0.12475 -0.12475,-0.30296 0,-0.19604 0,-0.40989 v -7.52058 q 0,-0.17821 0,-0.35643 0,-0.17821 0.0713,-0.28514 0.10692,-0.12474 0.30296,-0.16039 0.0356,-0.0178 0.0891,0 0.0713,0 0.10693,-0.0178 h 0.89107 q 0.10692,0 0.23167,0 0.14257,-0.0178 0.23168,0 h 0.14257 q 0.10693,0.0356 0.19603,0.0535 0.0891,0.0178 0.14257,0.10692 0.0713,0.0891 0.0713,0.2495 0.0178,0.16039 0.0178,0.3386 z" id="path4921"/>
    <path d="m -151.03779,157.09343 q 0.12475,0.0891 0.12475,0.30296 0.0178,0.19603 0.0178,0.40989 v 7.60968 q 0,0.14257 -0.0178,0.28514 0,0.12475 0,0.26732 -0.0178,0.14257 -0.0356,0.2495 0,0.12475 -0.0178,0.26732 -0.0713,0.2495 -0.12475,0.46335 -0.0356,0.23168 -0.12475,0.42771 -0.30296,0.67721 -0.78413,1.12274 -0.46336,0.44554 -1.14057,0.73068 -0.19603,0.0891 -0.39206,0.14258 -0.19604,0.0535 -0.40989,0.10691 -0.19604,0.0535 -0.39207,0.0713 -0.19604,0.0178 -0.39207,0.0535 -0.0713,0 -0.14257,0 -0.0713,0.0178 -0.16039,0.0178 -0.0713,0.0178 -0.16039,0 -0.0891,0 -0.17821,0.0178 -0.0891,0.0178 -0.23168,0.0178 -0.14257,0 -0.23168,-0.0178 -0.0891,0 -0.16039,0 -0.0713,0 -0.14257,-0.0178 -0.14257,-0.0356 -0.30296,-0.0356 -0.14257,0 -0.26732,-0.0356 -0.0356,-0.0178 -0.0891,-0.0178 -0.0535,0 -0.0891,-0.0178 -0.17822,-0.0357 -0.35643,-0.0891 -0.16039,-0.0356 -0.32078,-0.10693 -0.67721,-0.28514 -1.21185,-0.73067 -0.53464,-0.42771 -0.78413,-1.15838 -0.0357,-0.0535 -0.0357,-0.10693 0,-0.0535 -0.0178,-0.0891 -0.0535,-0.23167 0.0356,-0.35642 0.10693,-0.10693 0.28514,-0.14257 0.17822,-0.0356 0.39207,-0.0356 0.23168,0.0178 0.42771,0.0178 h 0.60593 q 0.0891,0 0.14257,0 0.0713,0.0178 0.16039,0.0178 0.28514,0.0713 0.35642,0.17821 0.0713,0.12475 0.21386,0.32078 0.0535,0.0713 0.16039,0.17822 0.0178,0.0356 0.0356,0.0535 0.0178,0.0178 0.0356,0.0535 0.14257,0.10693 0.30296,0.19604 0.16039,0.0891 0.35642,0.16039 0.12475,0.0356 0.2495,0.0356 0.12475,0.0178 0.26732,0.0535 h 0.19603 q 0.12475,0.0356 0.32079,0 0.19603,-0.0178 0.30296,-0.0535 0.0891,-0.0356 0.14257,-0.0356 0.0713,0 0.14257,-0.0356 0.37425,-0.16039 0.62374,-0.42771 0.2495,-0.26732 0.40989,-0.62375 0.0357,-0.10693 0.0535,-0.21385 0.0178,-0.10693 0.0535,-0.23168 0.0356,-0.16039 0.0356,-0.3386 0.0178,-0.19604 0.0178,-0.39207 0,-0.0713 0,-0.14257 0.0178,-0.0713 0,-0.12475 -0.0356,-0.0891 -0.0356,-0.16039 0.0178,-0.0713 -0.0178,-0.14257 -0.0178,-0.0357 -0.0535,-0.0535 -0.0178,-0.0178 -0.0535,-0.0535 -0.16039,-0.0178 -0.26732,0.0713 -0.0891,0.0891 -0.17821,0.1604 -0.16039,0.12474 -0.32078,0.23167 -0.16039,0.10693 -0.35643,0.19604 -0.19603,0.0891 -0.39207,0.14257 -0.19603,0.0535 -0.40988,0.10692 -0.10693,0.0178 -0.21386,0.0357 -0.0891,0 -0.17821,0.0178 -0.0891,0.0178 -0.28514,0.0178 -0.19604,0 -0.28514,-0.0178 h -0.14257 q -0.0535,-0.0178 -0.12475,-0.0178 -0.0535,0 -0.12475,-0.0178 -0.2495,-0.0535 -0.48118,-0.0891 -0.23167,-0.0535 -0.42771,-0.14257 -0.76631,-0.30296 -1.24749,-0.8376 -0.46335,-0.55246 -0.78413,-1.31878 -0.0891,-0.19603 -0.12475,-0.40988 -0.0356,-0.21386 -0.10693,-0.42771 0,-0.0891 -0.0178,-0.14258 -0.0356,-0.14257 -0.0356,-0.30296 0,-0.17821 -0.0356,-0.32078 -0.0178,-0.0891 -0.0178,-0.16039 0,-0.0891 0,-0.17821 -0.0178,-0.0891 -0.0178,-0.21386 0,-0.14257 0.0178,-0.23168 v -0.17821 q 0.0178,-0.0713 0,-0.14257 0,-0.0713 0.0357,-0.14257 0.0356,-0.17821 0.0535,-0.3386 0.0178,-0.17822 0.0535,-0.35643 0.10693,-0.35642 0.21386,-0.67721 0.12475,-0.32078 0.30296,-0.60592 0.0891,-0.17821 0.19603,-0.32078 0.12475,-0.16039 0.2495,-0.32079 0.0535,-0.0891 0.14257,-0.17821 0.10693,-0.0891 0.19604,-0.16039 l 0.10692,-0.10693 q 0.0891,-0.0713 0.17822,-0.12475 0.0891,-0.0713 0.17821,-0.12475 0.23168,-0.14257 0.48117,-0.24949 0.2495,-0.10693 0.55246,-0.19604 0.14257,-0.0535 0.28514,-0.0535 0.1604,-0.0178 0.30297,-0.0535 0.0713,-0.0178 0.19603,0 0.12475,0.0178 0.16039,-0.0178 0.57028,-0.0178 1.01581,0.10693 0.46336,0.12475 0.81978,0.35643 0.0535,0.0356 0.10693,0.0891 0.0535,0.0357 0.12475,0.0891 0.10693,0.0891 0.19603,0.17821 0.0891,0.0891 0.21386,0.16039 0.0356,0.0178 0.0891,0.0357 0.0713,0.0178 0.10693,-0.0178 0.0891,-0.0356 0.10693,-0.12474 0.0178,-0.0891 0.0535,-0.17822 0.0356,-0.0891 0.0535,-0.17821 0.0356,-0.10693 0.10693,-0.17821 0.10692,-0.0713 0.24949,-0.0713 0.16039,-0.0178 0.32079,-0.0178 h 0.90888 q 0.19604,0 0.33861,0.0178 0.16039,0 0.26731,0.0891 z m -2.44151,5.50677 q 0.0713,-0.16039 0.12475,-0.40989 0.0535,-0.24949 0.0713,-0.51681 0.0178,-0.28514 0,-0.55246 0,-0.26732 -0.0535,-0.48118 -0.0356,-0.0713 -0.0356,-0.10693 0.0178,-0.0535 0,-0.12474 -0.0356,-0.12475 -0.0713,-0.2495 -0.0356,-0.12475 -0.0891,-0.23168 -0.2495,-0.62374 -0.71285,-0.96235 -0.46336,-0.3386 -1.35442,-0.3386 -0.0356,0.0356 -0.10693,0.0356 -0.0535,-0.0178 -0.10693,0 -0.12475,0.0356 -0.23167,0.0713 -0.10693,0.0178 -0.21386,0.0535 -0.46335,0.19604 -0.71285,0.5881 -0.2495,0.39207 -0.40989,0.87325 -0.0356,0.0891 -0.0356,0.14256 0,0.0535 -0.0178,0.14257 -0.0535,0.19604 -0.0713,0.57029 -0.0178,0.37424 0.0356,0.60592 v 0.17821 q 0.0357,0.14257 0.0535,0.28514 0.0178,0.12475 0.0535,0.26732 0.16039,0.46335 0.39207,0.81978 0.23168,0.3386 0.64157,0.55246 0.17821,0.0891 0.49899,0.17821 0.12475,0 0.19604,0.0178 0.0356,0 0.10692,0.0178 0.0713,0 0.10693,-0.0178 h 0.17821 q 0.1604,-0.0356 0.30297,-0.0535 0.14257,-0.0178 0.28514,-0.0891 0.44553,-0.17821 0.71285,-0.49899 0.28514,-0.32079 0.46335,-0.76632 z" style="font-style:normal;font-variant:normal;font-weight:bold;font-stretch:normal;font-size:17.8212738px;line-height:11.13833237px;font-family:'Alte Haas Grotesk';-inkscape-font-specification:'Alte Haas Grotesk, Bold';font-variant-ligatures:normal;font-variant-caps:normal;font-variant-numeric:normal;font-feature-settings:normal;text-align:start;letter-spacing:0px;word-spacing:0px;writing-mode:lr-tb;text-anchor:start;fill:#000000;fill-opacity:1;stroke:none;stroke-width:0.44553334px;stroke-linecap:butt;stroke-linejoin:miter;stroke-opacity:1" id="path7974"/>
    <path d="m -148.34681,153.49353 h 1.21185 q 0.17821,0 0.3386,0 0.17822,0 0.28515,0.0891 0.12474,0.0713 0.16039,0.30296 0,0.0891 0,0.17821 0.0178,0.0713 0.0178,0.16039 v 0.64157 2.04945 q 0,0.12475 -0.0178,0.28514 0,0.16039 0.0178,0.32078 0.0178,0.14257 0.0713,0.2495 0.0713,0.0891 0.19604,0.0891 0.0356,-0.0356 0.0713,-0.0356 0.0356,0 0.0713,-0.0356 0.12475,-0.0891 0.23167,-0.19604 0.10693,-0.12474 0.2495,-0.21385 0.19604,-0.14257 0.40989,-0.2495 0.21386,-0.10693 0.46335,-0.21385 0.0713,-0.0357 0.14257,-0.0357 0.0713,0 0.1604,-0.0356 0.17821,-0.0535 0.37424,-0.0713 0.19604,-0.0178 0.42771,-0.0178 0.0891,0 0.16039,0 0.0891,0 0.17822,0.0178 h 0.10692 q 0.12475,0.0178 0.23168,0.0356 0.12475,0.0178 0.2495,0.0356 0.30296,0.0891 0.55246,0.19604 0.26732,0.0891 0.51682,0.23167 0.39206,0.2495 0.62374,0.64157 0.2495,0.37424 0.40989,0.8376 0.0356,0.14257 0.0535,0.30296 0.0357,0.14257 0.0713,0.28514 0.0356,0.16039 0.0356,0.3386 0,0.17822 0.0356,0.35643 v 0.19603 q 0.0357,0.14257 0.0178,0.32079 -0.0178,0.16039 -0.0178,0.30296 v 1.26531 2.78012 q 0,0.30296 0.0178,0.64156 0.0178,0.33861 -0.12474,0.51682 -0.0891,0.10693 -0.28514,0.12475 -0.19604,0 -0.39207,0 h -0.89107 q -0.28514,0 -0.48117,-0.0178 -0.19603,-0.0356 -0.28514,-0.23168 -0.0535,-0.10693 -0.0535,-0.2495 0,-0.16039 0,-0.30296 v -1.0158 -2.85141 q 0,-0.74849 -0.0713,-1.37223 -0.0713,-0.64157 -0.44553,-0.99799 -0.2495,-0.2495 -0.60593,-0.35643 -0.0713,-0.0178 -0.12474,-0.0178 -0.0357,0 -0.10693,-0.0178 -0.0713,-0.0178 -0.19604,-0.0357 -0.10692,-0.0178 -0.17821,0.0178 -0.10692,0.0178 -0.23167,0.0178 -0.10693,0 -0.21386,0.0356 -0.40989,0.10693 -0.71285,0.32078 -0.32078,0.2495 -0.48118,0.67721 -0.14257,0.40989 -0.19603,0.94453 -0.0535,0.51682 -0.0535,1.10492 0.0178,0.5881 0.0178,1.14056 v 2.15637 q 0,0.23168 0,0.499 0,0.2495 -0.0891,0.39207 -0.0535,0.0713 -0.14257,0.10692 -0.0891,0.0178 -0.17821,0.0535 -0.10693,0.0356 -0.2495,0.0178 -0.12474,-0.0178 -0.2495,-0.0178 -0.16039,0 -0.37424,0 -0.21386,0.0178 -0.4277,0.0178 -0.21386,0 -0.39208,-0.0178 -0.17821,-0.0356 -0.26731,-0.10693 -0.10694,-0.0891 -0.12475,-0.26732 0,-0.19603 0,-0.39207 v -1.5861 -6.7008 -2.42369 q 0,-0.23168 -0.0178,-0.55246 -0.0178,-0.32078 0.0713,-0.46335 0.10693,-0.12475 0.28514,-0.17822 0.0357,-0.0178 0.0713,0 0.0356,0 0.0713,-0.0178 z" style="font-style:normal;font-variant:normal;font-weight:bold;font-stretch:normal;font-size:17.8212738px;line-height:11.13833237px;font-family:'Alte Haas Grotesk';-inkscape-font-specification:'Alte Haas Grotesk, Bold';font-variant-ligatures:normal;font-variant-caps:normal;font-variant-numeric:normal;font-feature-settings:normal;text-align:start;letter-spacing:0px;word-spacing:0px;writing-mode:lr-tb;text-anchor:start;fill:#000000;fill-opacity:1;stroke:none;stroke-width:0.44553334px;stroke-linecap:butt;stroke-linejoin:miter;stroke-opacity:1" id="path913"/>
    <path d="m -137.06597,154.24203 h 1.19403 q 0.26732,0 0.46335,0.0356 0.21386,0.0178 0.30296,0.21385 0.0357,0.0891 0.0357,0.21386 0,0.12475 0,0.2495 v 0.80195 q 0,0.0891 -0.0178,0.21386 0,0.10693 0.0178,0.19603 v 0.19604 q 0,0.14257 0.0178,0.26732 0.0178,0.10692 0.0891,0.19603 0.12475,0.16039 0.44553,0.17821 0.33861,0 0.64157,0 0.10693,0 0.21386,0 0.10692,0 0.19603,0.0357 0.19603,0.0891 0.21385,0.32078 0.0357,0.23167 0.0357,0.51681 0,0.12475 0,0.2495 0.0178,0.12475 -0.0178,0.21386 -0.0891,0.28514 -0.37425,0.30296 -0.28515,0.0178 -0.64157,0.0178 -0.0713,0 -0.16039,0 -0.0713,-0.0178 -0.12475,0 -0.0713,0.0178 -0.12476,0.0178 -0.0535,-0.0178 -0.10691,0.0178 -0.14257,0.0357 -0.21386,0.16039 -0.0535,0.10693 -0.0891,0.26732 -0.0178,0.0891 0,0.19604 0.0178,0.10693 0,0.19603 v 1.10492 2.08509 q 0,0.44553 0.0178,0.78414 0.0356,0.32078 0.23166,0.57028 0.0891,0.10692 0.23168,0.16039 0.16039,0.0356 0.32078,0.0713 0.0535,0.0178 0.10693,0.0178 0.0713,-0.0178 0.10694,0 h 0.19602 q 0.19605,0 0.33861,0.0178 0.14257,0.0178 0.23168,0.14257 0.0713,0.10692 0.0713,0.28514 0,0.16039 0,0.3386 0,0.37425 -0.0178,0.69503 0,0.30296 -0.28514,0.40989 -0.0891,0.0356 -0.1604,0.0178 -0.0713,0 -0.16039,0.0356 h -0.17821 q -0.0356,0 -0.10693,-0.0178 -0.0713,0 -0.12475,0.0178 -0.0891,0.0178 -0.19603,0 -0.0891,0 -0.17821,0 -0.0891,0 -0.17822,0 -0.0891,0.0178 -0.16039,0 h -0.19603 q -0.0891,-0.0178 -0.19604,-0.0178 -0.10692,0 -0.19603,-0.0178 -0.12475,-0.0178 -0.23168,-0.0356 -0.10692,-0.0178 -0.21385,-0.0356 -0.19604,-0.0535 -0.37425,-0.12475 -0.17821,-0.0713 -0.3386,-0.16039 -0.0535,-0.0357 -0.10693,-0.0713 -0.0535,-0.0535 -0.12475,-0.10693 -0.0356,-0.0356 -0.0891,-0.0713 -0.0535,-0.0535 -0.0891,-0.0891 -0.2495,-0.3386 -0.37425,-0.74849 -0.0356,-0.0713 -0.0356,-0.12475 0.0178,-0.0713 0,-0.16039 -0.0178,-0.0357 -0.0178,-0.0891 0,-0.0535 -0.0178,-0.0891 v -0.17821 q -0.0178,-0.0713 -0.0178,-0.16039 0.0178,-0.0891 0.0178,-0.17821 v -0.67721 -2.65537 -0.94453 q 0,-0.12475 0,-0.2495 0.0178,-0.12474 -0.0178,-0.23167 -0.0713,-0.2495 -0.2495,-0.32079 -0.19604,-0.0891 -0.499,-0.0535 -0.30296,0.0356 -0.51682,-0.0535 -0.14257,-0.0535 -0.17821,-0.16039 -0.0356,-0.10693 -0.0713,-0.26732 v -0.37426 q 0,-0.32078 0.0356,-0.51682 0.0356,-0.19603 0.30296,-0.26732 0.0713,-0.0356 0.14257,-0.0178 0.0713,0 0.16039,0 0.26732,0 0.499,-0.0178 0.23168,-0.0356 0.32078,-0.21385 0.0535,-0.12475 0.0535,-0.28514 0.0178,-0.1604 0.0178,-0.32079 v -1.10491 q 0,-0.14257 0,-0.30296 0,-0.16039 0.0356,-0.26732 0.0891,-0.17822 0.26732,-0.23167 0.0356,-0.0178 0.0891,0 0.0713,0 0.10693,-0.0178 z" style="font-style:normal;font-variant:normal;font-weight:bold;font-stretch:normal;font-size:17.8212738px;line-height:11.13833237px;font-family:'Alte Haas Grotesk';-inkscape-font-specification:'Alte Haas Grotesk, Bold';font-variant-ligatures:normal;font-variant-caps:normal;font-variant-numeric:normal;font-feature-settings:normal;text-align:start;letter-spacing:0px;word-spacing:0px;writing-mode:lr-tb;text-anchor:start;fill:#000000;fill-opacity:1;stroke:none;stroke-width:0.44553334px;stroke-linecap:butt;stroke-linejoin:miter;stroke-opacity:1" id="path7019"/>
    <path d="m -128.51177,156.737 q 1.3366,-0.0356 2.31677,0.30297 0.99799,0.32078 1.5148,1.12274 0.12475,0.19603 0.21386,0.40988 0.10693,0.19604 0.17821,0.44554 0.0356,0.10692 0.0356,0.23167 0,0.12475 -0.0356,0.21386 -0.0713,0.10693 -0.19603,0.14257 -0.0891,0.0356 -0.21386,0.0356 -0.12475,0 -0.24949,0 h -0.78414 q -0.12475,0 -0.2495,0.0178 -0.12475,0 -0.23168,-0.0356 -0.17821,-0.0356 -0.26731,-0.14257 -0.0891,-0.10693 -0.1604,-0.21386 -0.0713,-0.12474 -0.14257,-0.24949 -0.0535,-0.14257 -0.17821,-0.23168 -0.17821,-0.14257 -0.35642,-0.21386 -0.1604,-0.0713 -0.40989,-0.12474 -0.12475,-0.0357 -0.37425,-0.0535 -0.23168,-0.0178 -0.35643,0.0178 h -0.12474 q -0.0891,0.0178 -0.17822,0.0357 -0.0713,0 -0.16039,0.0178 -0.30296,0.0891 -0.49899,0.24949 -0.17822,0.14257 -0.2495,0.44554 -0.0356,0.12475 0,0.23167 0.0356,0.10693 0.0713,0.17822 0.12475,0.21385 0.28514,0.3386 0.17822,0.12475 0.40989,0.21386 0.33861,0.14257 0.73067,0.24949 0.40989,0.0891 0.81978,0.17822 0.42771,0.0713 0.81978,0.17821 0.40989,0.0891 0.76632,0.23168 0.16039,0.0713 0.30296,0.12474 0.16039,0.0357 0.30296,0.12475 0.3386,0.21386 0.60592,0.46336 0.28514,0.24949 0.44554,0.62374 0.0535,0.12475 0.0891,0.2495 0.0356,0.12475 0.0713,0.26732 0.0178,0.10693 0.0178,0.3386 0.0178,0.21386 0,0.33861 v 0.0891 q -0.0356,0.10693 -0.0535,0.21386 0,0.0891 -0.0178,0.17821 -0.12475,0.53464 -0.39207,0.94453 -0.28514,0.42771 -0.69502,0.69503 -0.40989,0.26732 -0.92671,0.46335 -0.19604,0.0891 -0.42771,0.12475 -0.21386,0.0356 -0.42771,0.0891 -0.16039,0.0356 -0.33861,0.0356 -0.16039,0.0178 -0.32078,0.0535 h -0.32078 q -0.10693,0.0357 -0.37425,0.0357 -0.2495,0 -0.35642,-0.0357 -0.0535,0 -0.12475,-0.0178 -0.0535,0 -0.12475,0 -0.21386,-0.0356 -0.42771,-0.0535 -0.21386,-0.0178 -0.40989,-0.0713 -0.69503,-0.19603 -1.22967,-0.44553 -0.53464,-0.26732 -0.90889,-0.78414 -0.24949,-0.3386 -0.42771,-0.78413 -0.0356,-0.10693 -0.0713,-0.28514 -0.0356,-0.0891 -0.0535,-0.2495 -0.0178,-0.16039 0.0178,-0.26732 0.0535,-0.12475 0.17821,-0.17821 0.0891,-0.0356 0.21385,-0.0356 0.12475,0 0.26732,0 h 0.8376 q 0.14257,0 0.28514,0 0.14257,0 0.2495,0.0356 0.19604,0.0713 0.2495,0.23167 0.0713,0.1604 0.16039,0.33861 0.0356,0.0891 0.12475,0.23168 0.10693,0.14257 0.17821,0.17821 0.21386,0.17821 0.40989,0.28514 0.19604,0.0891 0.499,0.17821 0.0891,0.0356 0.17821,0.0356 0.0891,-0.0178 0.17821,0 0.14257,0.0357 0.30296,0.0357 0.17822,-0.0178 0.30297,-0.0535 0.0891,-0.0178 0.16039,-0.0178 0.0891,0 0.17821,-0.0356 0.2495,-0.0891 0.44553,-0.21386 0.21386,-0.12475 0.33861,-0.32078 0.0891,-0.14257 0.14257,-0.44553 0.0356,-0.12475 0,-0.23168 -0.0356,-0.10693 -0.0713,-0.17821 -0.12475,-0.2495 -0.32078,-0.37425 -0.17821,-0.12475 -0.42771,-0.23167 -0.33861,-0.14257 -0.71285,-0.23168 -0.37425,-0.0891 -0.7485,-0.19603 -0.14257,-0.0357 -0.30296,-0.0535 -0.14257,-0.0178 -0.28514,-0.0535 -0.57028,-0.16039 -1.0871,-0.30296 -0.51681,-0.1604 -0.94452,-0.46336 -0.499,-0.35642 -0.73068,-0.96235 -0.0356,-0.12474 -0.0713,-0.3386 -0.0356,-0.12475 -0.0535,-0.30296 -0.0178,-0.17821 0.0178,-0.32078 0.0356,-0.0891 0.0178,-0.14257 -0.0178,-0.0713 0.0178,-0.1604 0.0356,-0.19603 0.0713,-0.35642 0.0535,-0.17821 0.12475,-0.33861 0.23168,-0.51681 0.64157,-0.8376 0.40989,-0.32078 0.92671,-0.51681 0.19603,-0.0891 0.40988,-0.12475 0.21386,-0.0535 0.44554,-0.10693 0.10692,-0.0356 0.21385,-0.0356 0.10693,-0.0178 0.21386,-0.0356 0.14257,-0.0178 0.30296,-0.0178 0.16039,0 0.30296,-0.0178 z" style="font-style:normal;font-variant:normal;font-weight:bold;font-stretch:normal;font-size:17.8212738px;line-height:11.13833237px;font-family:'Alte Haas Grotesk';-inkscape-font-specification:'Alte Haas Grotesk, Bold';font-variant-ligatures:normal;font-variant-caps:normal;font-variant-numeric:normal;font-feature-settings:normal;text-align:start;letter-spacing:0px;word-spacing:0px;writing-mode:lr-tb;text-anchor:start;fill:#000000;fill-opacity:1;stroke:none;stroke-width:0.44553334px;stroke-linecap:butt;stroke-linejoin:miter;stroke-opacity:1" id="path9773"/>
    <path d="m -106.41341,165.8615 q 0.0356,0.0891 0,0.16039 -0.0178,0.0535 -0.0713,0.0891 -0.12475,0.0891 -0.3386,0.0713 -0.21386,0 -0.40989,0 h -1.0871 q -0.30296,0 -0.53464,0 -0.21385,-0.0178 -0.39207,-0.16039 -0.0713,-0.0535 -0.12474,-0.10693 -0.0535,-0.0713 -0.10693,-0.14257 -0.0356,-0.0356 -0.0713,-0.0713 -0.0178,-0.0356 -0.0535,-0.0713 -0.0713,-0.0891 -0.14257,-0.17821 -0.0713,-0.0891 -0.16039,-0.17822 -0.0535,-0.0535 -0.14257,-0.10692 -0.0891,-0.0713 -0.23168,-0.0357 -0.14257,0.0357 -0.23168,0.10693 -0.0891,0.0713 -0.17821,0.14257 -0.14257,0.0891 -0.28514,0.19604 -0.14257,0.10692 -0.28514,0.19603 -0.2495,0.14257 -0.55246,0.26732 -0.28514,0.10693 -0.5881,0.21385 -0.12475,0.0357 -0.2495,0.0535 -0.12475,0.0178 -0.26732,0.0535 -0.0891,0.0356 -0.17821,0.0178 -0.0891,0 -0.17821,0.0178 h -0.12475 q -0.0891,0.0357 -0.26732,0.0357 -0.16039,0 -0.2495,-0.0178 -0.0891,0 -0.16039,-0.0178 -0.0713,0 -0.16039,0 -0.17822,-0.0356 -0.35643,-0.0535 -0.17821,-0.0178 -0.3386,-0.0535 -0.23168,-0.0713 -0.42771,-0.12475 -0.17822,-0.0535 -0.37425,-0.14257 -0.40989,-0.17822 -0.78414,-0.44553 -0.35642,-0.28515 -0.5881,-0.60593 -0.0891,-0.12475 -0.17821,-0.2495 -0.0713,-0.12474 -0.16039,-0.26732 -0.0713,-0.12474 -0.12475,-0.24949 -0.0356,-0.12475 -0.0891,-0.26732 -0.0891,-0.2495 -0.14257,-0.51682 -0.0535,-0.28514 -0.0535,-0.60592 v -0.40989 q 0.0178,-0.0535 0.0178,-0.10693 0,-0.0713 0.0178,-0.12475 0.0356,-0.14257 0.0535,-0.26732 0.0178,-0.12475 0.0535,-0.2495 0.19603,-0.60592 0.57028,-1.08709 0.39207,-0.48118 0.85542,-0.8376 0.30296,-0.21386 0.65939,-0.44553 0.10693,-0.0713 0.21385,-0.12475 0.12475,-0.0713 0.17822,-0.21386 0.0535,-0.17821 -0.0713,-0.35642 -0.12475,-0.17822 -0.19603,-0.26732 -0.32079,-0.46336 -0.51682,-0.96235 -0.0535,-0.12475 -0.0891,-0.2495 -0.0178,-0.12475 -0.0535,-0.26732 -0.0891,-0.30296 -0.0713,-0.69503 0.0357,-0.39207 0.12475,-0.64156 0.2495,-0.7485 0.71285,-1.17621 0.46336,-0.44553 1.15839,-0.74849 0.19603,-0.0713 0.39207,-0.10693 0.19603,-0.0356 0.40988,-0.0891 0.10693,0 0.21386,0 0.10693,-0.0178 0.21386,-0.0356 1.12274,-0.0178 1.92469,0.39207 0.80196,0.39207 1.22967,1.06928 0.0535,0.10692 0.0891,0.21385 0.0535,0.10693 0.10692,0.21386 0.14258,0.35642 0.19603,0.89106 0.0713,0.51682 -0.0713,0.96235 -0.0713,0.23168 -0.16038,0.44553 -0.0713,0.21386 -0.17821,0.40989 -0.19604,0.28514 -0.44554,0.57028 -0.24949,0.26732 -0.51681,0.46335 -0.0891,0.0891 -0.19603,0.1604 -0.10694,0.0535 -0.19604,0.12474 -0.0535,0.0357 -0.10692,0.0891 -0.0535,0.0356 -0.0891,0.0891 -0.0891,0.10692 -0.0713,0.24949 0.0178,0.12475 0.0891,0.21386 0.0535,0.0891 0.12475,0.16039 0.0713,0.0713 0.12474,0.16039 0.17821,0.2495 0.35642,0.46336 0.17823,0.19603 0.35644,0.42771 0.0535,0.0891 0.17821,0.16039 0.14257,0.0713 0.26731,-0.0178 0.10694,-0.0713 0.1604,-0.19604 0.0713,-0.12475 0.10693,-0.26732 0.0356,-0.16038 0.0713,-0.30296 0.0357,-0.14257 0.12475,-0.2495 0.14257,-0.1782 0.48117,-0.1782 0.3386,0 0.64157,0 0.10692,0 0.23168,0 0.12475,-0.0178 0.21386,0.0178 h 0.10692 q 0.23168,0.0357 0.32079,0.16039 0.0891,0.14257 0.0178,0.40989 -0.0535,0.26732 -0.0891,0.40989 -0.0356,0.12475 -0.0713,0.23168 -0.0178,0.10693 -0.0535,0.19603 -0.12476,0.30297 -0.24951,0.58811 -0.10691,0.26731 -0.24949,0.51681 -0.0535,0.0891 -0.17822,0.28514 -0.12474,0.19604 -0.0891,0.35643 0.0713,0.2495 0.23167,0.40989 0.16041,0.14257 0.30297,0.32078 0.21385,0.30296 0.46335,0.55246 0.2495,0.2495 0.46335,0.55246 0.0535,0.0891 0.12475,0.14257 0.0713,0.0535 0.12475,0.14257 0.0891,0.12475 0.19603,0.2495 0.10693,0.10693 0.17822,0.2495 z m -5.48896,-2.22766 q 0.0891,-0.0713 0.17822,-0.19604 0.10692,-0.12475 0.0535,-0.30296 -0.0356,-0.14257 -0.14257,-0.2495 -0.0891,-0.12475 -0.17821,-0.23167 -0.14257,-0.19604 -0.28514,-0.35643 -0.14257,-0.16039 -0.28514,-0.35642 -0.0357,-0.0357 -0.0713,-0.0535 -0.0178,-0.0356 -0.0535,-0.0713 -0.12475,-0.1604 -0.24951,-0.30297 -0.12474,-0.16039 -0.2495,-0.32078 -0.12474,-0.16039 -0.26731,-0.32078 -0.14258,-0.16039 -0.44553,-0.16039 -0.0356,0.0178 -0.14257,0.0535 -0.0891,0.0356 -0.16039,0.0713 -0.0535,0.0356 -0.12476,0.0713 -0.35641,0.21386 -0.64156,0.53464 -0.28514,0.30296 -0.42772,0.71285 -0.0178,0.0713 -0.0356,0.14257 0,0.0713 -0.0178,0.16039 -0.0356,0.17822 0,0.39207 0.0356,0.19603 0.0713,0.32078 0.30297,0.8376 1.2475,1.14056 0.17821,0.0535 0.46335,0.0713 0.28514,0 0.48117,-0.0535 0.40989,-0.10693 0.69503,-0.26732 0.30296,-0.17822 0.5881,-0.42771 z m 0.2495,-7.18198 q 0.0356,-0.12475 0.0178,-0.26732 -0.0178,-0.14257 -0.0535,-0.23167 -0.19603,-0.67721 -0.78414,-0.85542 -0.16039,-0.0535 -0.39206,-0.0535 -0.0356,0.0178 -0.0891,0.0178 -0.0356,-0.0178 -0.0713,0 -0.14257,0.0357 -0.23167,0.0713 -0.44553,0.17821 -0.64157,0.71285 -0.0356,0.14257 -0.0356,0.32078 0,0.17822 0.0356,0.32079 0.0356,0.0891 0.0356,0.17821 0.0178,0.0713 0.0535,0.16039 0.0891,0.21386 0.19603,0.39207 0.12475,0.16039 0.2495,0.3386 0.0713,0.0891 0.21386,0.2495 0.16039,0.14257 0.32078,0.10693 0.17821,-0.0356 0.26732,-0.10693 0.10692,-0.0891 0.23167,-0.17821 0.44554,-0.32079 0.62375,-0.90889 0.0356,-0.0713 0.0178,-0.12475 0,-0.0713 0.0356,-0.14257 z" style="font-style:normal;font-variant:normal;font-weight:bold;font-stretch:normal;font-size:17.8212738px;line-height:11.13833237px;font-family:'Alte Haas Grotesk';-inkscape-font-specification:'Alte Haas Grotesk, Bold';font-variant-ligatures:normal;font-variant-caps:normal;font-variant-numeric:normal;font-feature-settings:normal;text-align:start;letter-spacing:0px;word-spacing:0px;writing-mode:lr-tb;text-anchor:start;fill:#000000;fill-opacity:1;stroke:none;stroke-width:0.44553334px;stroke-linecap:butt;stroke-linejoin:miter;stroke-opacity:1" id="path3968"/>
    <path d="m -94.597922,153.17275 q 1.871242,-0.0356 3.083081,0.64156 1.21185,0.67721 1.924699,1.79995 0.196032,0.30296 0.320781,0.62375 0.124751,0.30296 0.231679,0.67721 0.0356,0.12475 0.0713,0.28514 0.0357,0.16039 -0.01781,0.30296 -0.0356,0.10693 -0.142571,0.14257 -0.0891,0.0178 -0.213849,0.0535 h -0.142571 q -0.106929,0.0356 -0.2495,0.0356 -0.124751,-0.0178 -0.249499,-0.0178 -0.16039,0 -0.39207,0.0178 -0.213852,0 -0.42771,0 -0.213852,-0.0178 -0.39207,-0.0356 -0.17821,-0.0356 -0.267311,-0.0891 -0.142571,-0.12475 -0.21386,-0.33861 -0.0713,-0.21385 -0.17821,-0.37425 -0.338609,-0.5881 -0.891069,-0.9267 -0.37424,-0.23168 -0.837602,-0.37425 -0.302959,-0.10693 -0.766308,-0.10693 -0.445532,0 -0.78414,0.0891 -0.142571,0.0356 -0.267322,0.0713 -0.106918,0.0178 -0.231669,0.0713 -1.21185,0.51683 -1.710841,1.71084 -0.0891,0.21386 -0.160398,0.44553 -0.0713,0.23168 -0.160391,0.48118 -0.01781,0.12475 -0.0356,0.23168 -0.01781,0.10692 -0.0356,0.23167 -0.0357,0.10693 -0.0357,0.23168 0.01781,0.10693 -0.01781,0.23168 -0.0356,0.14257 -0.0356,0.30296 0.01781,0.14257 0.01781,0.28514 0,0.0713 -0.01781,0.14258 0,0.0713 0.01781,0.14256 v 0.16039 q 0.0356,0.0891 0.01781,0.17821 0,0.0891 0.0357,0.17821 0,0.10693 0.0356,0.28515 0.0356,0.19603 0.0713,0.37424 0.0357,0.16039 0.0891,0.32078 0.2495,0.7485 0.64157,1.28314 0.39206,0.51681 1.033629,0.85542 0.19603,0.0891 0.40989,0.16039 0.21385,0.0535 0.463352,0.12475 0.0891,0.0178 0.16039,0.0356 0.0891,0 0.178218,0 h 0.142571 q 0.0891,0.0356 0.231669,0.0356 0.142571,-0.0178 0.23168,-0.0356 0.106931,0 0.16039,-0.0178 0.21386,-0.0356 0.39207,-0.0713 0.19603,-0.0356 0.374251,-0.12474 0.40989,-0.17822 0.695031,-0.46336 0.302959,-0.30296 0.534628,-0.67721 0.106931,-0.17821 0.17822,-0.39206 0.0713,-0.21386 0.160391,-0.42771 0.0535,-0.19604 0.106929,-0.35643 0.0535,-0.16039 0.231671,-0.2495 0.106929,-0.0356 0.26732,-0.0356 0.16039,0 0.302961,0 h 1.087099 q 0.16039,0 0.32078,0 0.178221,0 0.285139,0.0713 0.124751,0.0891 0.124751,0.28514 0.01781,0.19604 -0.0356,0.37425 l -0.106932,0.48118 q -0.0891,0.26732 -0.17821,0.51681 -0.0713,0.2495 -0.19603,0.48118 -0.0891,0.14257 -0.142568,0.28514 -0.0535,0.12475 -0.142571,0.2495 -0.98017,1.53263 -2.851409,2.13855 -0.196032,0.0713 -0.39207,0.10693 -0.196032,0.0356 -0.392062,0.0713 -0.0891,0.0356 -0.178218,0.0178 -0.0713,0 -0.160391,0.0357 -0.124751,0 -0.249499,0 -0.106921,0.0178 -0.231672,0.0356 h -0.285139 q -0.16039,0 -0.320791,0 -0.160388,0 -0.302959,-0.0356 -0.0535,-0.0178 -0.17821,-0.0178 -0.124751,-0.0178 -0.249499,-0.0356 -0.124751,-0.0178 -0.267322,-0.0356 -0.17821,-0.0535 -0.35642,-0.0891 -0.160388,-0.0356 -0.338609,-0.0891 -0.16039,-0.0535 -0.32078,-0.10693 -0.160391,-0.0713 -0.302959,-0.14257 -1.069282,-0.46335 -1.817772,-1.22967 -0.730668,-0.78414 -1.194035,-1.85341 -0.10691,-0.26732 -0.17821,-0.53464 -0.0713,-0.26732 -0.16038,-0.55246 -0.0356,-0.0891 -0.0356,-0.14257 0,-0.0713 -0.0178,-0.14257 -0.0356,-0.16039 -0.0535,-0.3386 -0.0178,-0.17822 -0.0535,-0.33861 -0.0357,-0.0891 -0.0357,-0.14257 0.0178,-0.0713 0,-0.14257 v -0.3386 q -0.0356,-0.0891 -0.0356,-0.26732 0,-0.17822 0.0356,-0.26732 0.0178,-0.0535 0,-0.10693 0,-0.0713 0,-0.10693 v -0.16038 q 0.0357,-0.14257 0.0357,-0.30296 0.0178,-0.16039 0.0356,-0.32078 0.0356,-0.14257 0.0535,-0.26732 0.0178,-0.14257 0.0535,-0.28514 0.0713,-0.2495 0.12475,-0.48118 0.0535,-0.24949 0.14257,-0.46335 0.0891,-0.23168 0.178207,-0.46335 0.106931,-0.23168 0.231679,-0.42771 0.285142,-0.499 0.5881,-0.89107 0.0891,-0.12475 0.196033,-0.23167 0.106928,-0.10693 0.21386,-0.21386 0.445529,-0.44553 0.926698,-0.74849 0.499001,-0.32079 1.12274,-0.57028 0.213861,-0.0891 0.44554,-0.14257 0.231669,-0.0713 0.481172,-0.12475 0.106928,-0.0357 0.21386,-0.0357 0.106918,0 0.196029,-0.0356 0.142568,-0.0178 0.26732,-0.0178 0.14257,-0.0178 0.285138,-0.0356 0.0356,-0.0178 0.0891,0 0.0535,0.0178 0.0891,0 z" style="font-style:normal;font-variant:normal;font-weight:bold;font-stretch:normal;font-size:17.8212738px;line-height:11.13833237px;font-family:'Alte Haas Grotesk';-inkscape-font-specification:'Alte Haas Grotesk, Bold';font-variant-ligatures:normal;font-variant-caps:normal;font-variant-numeric:normal;font-feature-settings:normal;text-align:start;letter-spacing:0px;word-spacing:0px;writing-mode:lr-tb;text-anchor:start;fill:#000000;fill-opacity:1;stroke:none;stroke-width:0.44553334px;stroke-linecap:butt;stroke-linejoin:miter;stroke-opacity:1" id="path1451"/>
    <path d="m -86.542722,153.47571 h 1.300962 q 0.17821,0 0.338598,0.0178 0.16039,0.0178 0.249502,0.10693 0.106928,0.12475 0.106928,0.3386 0.01781,0.19604 0.01781,0.40989 v 1.5861 6.39783 2.72666 q 0,0.21385 0,0.49899 0.01781,0.26732 -0.0713,0.40989 -0.0891,0.14257 -0.320781,0.19604 -0.106929,0.0356 -0.249499,0.0178 -0.124751,-0.0178 -0.2495,-0.0178 h -0.855421 q -0.19603,0 -0.356421,-0.0178 -0.16039,-0.0178 -0.267319,-0.10693 -0.106928,-0.0891 -0.124751,-0.26732 0,-0.19603 0,-0.39207 v -1.5861 -6.68298 -2.42369 q 0,-0.23168 -0.01781,-0.55246 0,-0.32079 0.0891,-0.46336 0.0356,-0.0713 0.0891,-0.10692 0.0713,-0.0357 0.142571,-0.0713 0.0356,0 0.0891,0 0.0535,-0.0178 0.0891,-0.0178 z" style="font-style:normal;font-variant:normal;font-weight:bold;font-stretch:normal;font-size:17.8212738px;line-height:11.13833237px;font-family:'Alte Haas Grotesk';-inkscape-font-specification:'Alte Haas Grotesk, Bold';font-variant-ligatures:normal;font-variant-caps:normal;font-variant-numeric:normal;font-feature-settings:normal;text-align:start;letter-spacing:0px;word-spacing:0px;writing-mode:lr-tb;text-anchor:start;fill:#000000;fill-opacity:1;stroke:none;stroke-width:0.44553334px;stroke-linecap:butt;stroke-linejoin:miter;stroke-opacity:1" id="path4102"/>
    <path d="m -67.420532,156.737 q 1.44352,-0.0356 2.40587,0.42771 0.98017,0.46336 1.55045,1.31878 0.28514,0.42771 0.42771,0.98017 0.0356,0.0891 0.0535,0.23167 0.0356,0.14258 0,0.2495 -0.0713,0.19604 -0.2495,0.23168 -0.17821,0.0178 -0.42771,0.0178 h -0.9267 q -0.16039,0 -0.33861,0 -0.16039,0 -0.26732,-0.0713 -0.14257,-0.0713 -0.19603,-0.21386 -0.0535,-0.16039 -0.14257,-0.32078 -0.10693,-0.19604 -0.23168,-0.35643 -0.12475,-0.16039 -0.28514,-0.28514 -0.24949,-0.16039 -0.55246,-0.2495 -0.10692,-0.0356 -0.21385,-0.0356 -0.10693,0 -0.19604,-0.0356 h -0.17821 q -0.35642,0 -0.57028,0.0713 -0.51682,0.16039 -0.8376,0.499 -0.32078,0.32078 -0.51682,0.78414 -0.0891,0.19603 -0.14257,0.42771 -0.0356,0.21385 -0.0891,0.46335 -0.0178,0.0713 -0.0178,0.14257 0,0.0713 -0.0178,0.14257 -0.0356,0.17821 -0.0356,0.49899 0.0178,0.32079 0.0535,0.499 0,0.14257 0.0178,0.19603 0.0356,0.12475 0.0356,0.2495 0.0178,0.12475 0.0535,0.2495 0.14257,0.40989 0.33861,0.74849 0.19603,0.33861 0.49899,0.57028 0.0713,0.0535 0.21386,0.12475 0.19603,0.12475 0.39207,0.16039 0.21385,0.0357 0.51681,0.0713 0.0357,0 0.10693,0 0.0713,0 0.10693,-0.0178 h 0.16039 q 0.12475,-0.0356 0.23168,-0.0535 0.12475,-0.0356 0.23167,-0.0713 0.53464,-0.23168 0.81978,-0.67721 0.0713,-0.0891 0.12475,-0.19603 0.0535,-0.12475 0.0891,-0.21386 0.0713,-0.19603 0.12475,-0.3386 0.0535,-0.16039 0.24949,-0.2495 0.1604,-0.0713 0.51682,-0.0535 0.35643,0 0.5881,0 0.12475,0 0.2495,0 0.14257,-0.0178 0.23168,0.0178 h 0.14257 q 0.0713,0.0178 0.14257,0.0356 0.0713,0 0.10693,0.0356 0.0891,0.0713 0.10692,0.21386 0.0357,0.12475 0,0.26732 -0.16039,0.5881 -0.39206,1.05145 -0.73068,1.37224 -2.33459,1.90688 -0.17821,0.0535 -0.37425,0.0713 -0.19603,0.0357 -0.39207,0.0891 -0.10692,0.0178 -0.21385,0.0178 -0.10693,0 -0.21386,0.0178 h -0.19603 q -0.0891,0.0357 -0.26732,0.0178 -0.17821,0 -0.26732,-0.0178 -0.14257,-0.0356 -0.26732,-0.0356 -0.10693,0.0178 -0.23167,-0.0178 -0.0891,-0.0178 -0.17822,-0.0356 -0.0891,0 -0.17821,-0.0178 -0.19603,-0.0535 -0.37425,-0.10692 -0.17821,-0.0535 -0.3386,-0.12475 -0.8376,-0.35643 -1.40788,-0.90889 -0.57028,-0.57028 -0.92671,-1.40788 -0.0891,-0.16039 -0.14257,-0.3386 -0.0535,-0.19604 -0.10693,-0.39207 -0.0178,-0.0713 -0.0178,-0.12475 0,-0.0713 -0.0356,-0.16039 -0.0356,-0.12475 -0.0356,-0.2495 0,-0.14257 -0.0356,-0.26732 v -0.30296 q -0.0357,-0.0891 -0.0357,-0.19603 0,-0.12475 0.0357,-0.21386 0.0178,-0.0891 0,-0.16039 -0.0178,-0.0713 0,-0.14257 0.0356,-0.12475 0.0178,-0.23168 0,-0.10692 0.0356,-0.21385 0.0891,-0.32078 0.14257,-0.60592 0.0535,-0.30297 0.16039,-0.58811 0.39207,-0.90888 0.98017,-1.5148 0.60592,-0.60593 1.53263,-0.98017 0.2495,-0.10693 0.51682,-0.14258 0.26732,-0.0535 0.55246,-0.12474 0.14257,-0.0178 0.26732,-0.0178 0.12474,0 0.26732,-0.0178 z" style="font-style:normal;font-variant:normal;font-weight:bold;font-stretch:normal;font-size:17.8212738px;line-height:11.13833237px;font-family:'Alte Haas Grotesk';-inkscape-font-specification:'Alte Haas Grotesk, Bold';font-variant-ligatures:normal;font-variant-caps:normal;font-variant-numeric:normal;font-feature-settings:normal;text-align:start;letter-spacing:0px;word-spacing:0px;writing-mode:lr-tb;text-anchor:start;fill:#000000;fill-opacity:1;stroke:none;stroke-width:0.44553334px;stroke-linecap:butt;stroke-linejoin:miter;stroke-opacity:1" id="path384"/>
    <path d="m -60.701932,153.47571 h 1.30096 q 0.19603,0 0.35642,0.0178 0.16039,0.0178 0.2495,0.10693 0.14257,0.16039 0.12475,0.51682 0,0.35642 0,0.65938 v 3.0118 1.0871 q 0,0.12475 -0.0178,0.26732 -0.0178,0.14257 0.0178,0.26731 v 0.1604 q 0.0356,0.0891 0.0535,0.19603 0.0178,0.0891 0.10693,0.12475 0.0535,0.0356 0.14257,0.0178 0.0891,-0.0356 0.12475,-0.0713 0.17821,-0.12475 0.30296,-0.28515 0.14257,-0.16039 0.28514,-0.30296 0.14257,-0.14257 0.30296,-0.28514 0.1604,-0.16039 0.28514,-0.3386 0.0535,-0.0356 0.12475,-0.10693 0.0891,-0.0891 0.17822,-0.17821 0.0891,-0.10693 0.17821,-0.19604 l 0.40989,-0.40989 q 0.0356,-0.0713 0.0891,-0.10692 0.0713,-0.0535 0.12475,-0.12475 0.14257,-0.17821 0.30297,-0.30296 0.17821,-0.14257 0.42771,-0.19604 0.0891,-0.0178 0.24949,-0.0178 0.0713,-0.0178 0.14257,0 0.0713,0 0.1604,0 h 0.5881 q 0.14257,0 0.3386,-0.0178 0.21386,-0.0178 0.35643,0.0178 h 0.19603 q 0.0891,0.0356 0.17821,0.0535 0.0891,0 0.12475,0.0713 0.0357,0.0535 0,0.14257 -0.0178,0.0891 -0.0535,0.12475 -0.10693,0.17821 -0.26732,0.32078 -0.16039,0.12475 -0.30296,0.26732 -0.12475,0.12475 -0.2495,0.2495 -0.10693,0.12475 -0.2495,0.23168 -0.0891,0.0713 -0.16039,0.16039 -0.0535,0.0713 -0.14257,0.14257 -0.0891,0.0535 -0.16039,0.14257 -0.0713,0.0891 -0.16039,0.16039 l -0.67721,0.67721 q -0.12475,0.10693 -0.23168,0.21385 -0.0891,0.0891 -0.17821,0.23168 -0.0356,0.0535 -0.0713,0.14257 -0.0357,0.0713 0,0.16039 0.0356,0.19603 0.12474,0.32078 0.10693,0.12475 0.19604,0.26732 0.14257,0.19604 0.2495,0.39207 0.12474,0.19603 0.26731,0.39207 l 1.87124,2.83358 q 0.17821,0.2495 0.3386,0.499 0.17822,0.2495 0.32079,0.49899 0.0535,0.0891 0.0535,0.21386 0.0178,0.12475 -0.0713,0.19603 -0.0713,0.0356 -0.14257,0.0356 -0.0713,0 -0.16039,0.0356 -0.0713,0.0178 -0.16039,0.0178 -0.0891,-0.0178 -0.17821,-0.0178 h -0.69503 q -0.28514,0 -0.67721,0.0178 -0.39207,0 -0.5881,-0.0891 -0.19604,-0.0891 -0.33861,-0.32078 -0.14257,-0.2495 -0.26731,-0.44553 -0.30297,-0.48118 -0.60593,-0.96235 -0.30296,-0.499 -0.60592,-0.98017 -0.14257,-0.23168 -0.28514,-0.46335 -0.12475,-0.23168 -0.28514,-0.44554 -0.0356,-0.0535 -0.12475,-0.14257 -0.0891,-0.0891 -0.19604,-0.0535 -0.16039,0.0356 -0.24949,0.10693 -0.0713,0.0713 -0.16039,0.16039 -0.14257,0.10693 -0.26732,0.2495 -0.12475,0.14257 -0.19604,0.3386 -0.0356,0.14257 -0.0356,0.32078 0,0.1604 0,0.32079 v 1.10492 q 0,0.12474 0,0.28514 0.0178,0.14257 0.0178,0.30296 0,0.16039 -0.0178,0.30296 -0.0178,0.12475 -0.0713,0.19603 -0.0713,0.10693 -0.23167,0.16039 -0.14257,0.0356 -0.33861,0.0535 -0.19603,0 -0.40989,0 -0.21385,-0.0178 -0.37424,-0.0178 -0.19604,0 -0.42771,0.0178 -0.23168,0 -0.37425,-0.0535 -0.23168,-0.0891 -0.2495,-0.32078 -0.0178,-0.23167 -0.0178,-0.53464 v -2.04945 -7.14633 -1.65738 q 0,-0.19604 -0.0178,-0.40989 0,-0.21386 0.0713,-0.33861 0.0713,-0.12474 0.24949,-0.17821 0.0357,0 0.0713,0 0.0535,-0.0178 0.0891,-0.0178 z" style="font-style:normal;font-variant:normal;font-weight:bold;font-stretch:normal;font-size:17.8212738px;line-height:11.13833237px;font-family:'Alte Haas Grotesk';-inkscape-font-specification:'Alte Haas Grotesk, Bold';font-variant-ligatures:normal;font-variant-caps:normal;font-variant-numeric:normal;font-feature-settings:normal;text-align:start;letter-spacing:0px;word-spacing:0px;writing-mode:lr-tb;text-anchor:start;fill:#000000;fill-opacity:1;stroke:none;stroke-width:0.44553334px;stroke-linecap:butt;stroke-linejoin:miter;stroke-opacity:1" id="path2880"/>
    <path d="m -51.452692,156.96868 h 1.31877 q 0.19603,0 0.37425,0.0178 0.17821,0 0.28514,0.0713 0.10692,0.0713 0.16039,0.19603 0.0713,0.10693 0.10693,0.26732 0.0356,0.14257 0.0713,0.30296 0.0356,0.14257 0.0713,0.26732 0.21385,0.62374 0.35642,1.28313 0.16039,0.65939 0.35643,1.30095 0.0356,0.10693 0.0535,0.21386 0.0178,0.0891 0.0535,0.19603 0.0891,0.26732 0.14257,0.55246 0.0713,0.26732 0.1604,0.53464 0.0356,0.12475 0.0891,0.28514 0.0535,0.16039 0.19604,0.19604 0.0891,0.0178 0.14257,-0.0891 0.0535,-0.12475 0.0891,-0.17821 0.0891,-0.2495 0.12475,-0.51682 0.0535,-0.26732 0.14257,-0.51682 0.0535,-0.16039 0.0891,-0.32078 0.0356,-0.17821 0.0713,-0.3386 0.12475,-0.42771 0.21386,-0.87325 0.10693,-0.44553 0.23168,-0.87324 0.0535,-0.19603 0.0891,-0.37425 0.0356,-0.17821 0.0891,-0.35642 0.0713,-0.26732 0.14257,-0.64157 0.0713,-0.37424 0.26732,-0.51681 0.12475,-0.0713 0.28514,-0.0713 0.16039,-0.0178 0.35642,-0.0178 h 0.92671 q 0.21386,0 0.39207,0.0178 0.17821,0.0178 0.30296,0.10693 0.0891,0.0713 0.12475,0.19603 0.0356,0.10693 0.0713,0.21386 0.0713,0.2495 0.10693,0.49899 0.0535,0.23168 0.14257,0.48118 0.21386,0.69503 0.35643,1.4257 0.16039,0.73067 0.35642,1.4257 0.0713,0.21386 0.10693,0.44553 0.0535,0.21386 0.12475,0.40989 0.0713,0.2495 0.14257,0.37425 0.0178,0.0178 0.0356,0.0356 0.0356,0 0.0535,0.0357 0.16039,-0.0178 0.19603,-0.10693 0.0535,-0.10693 0.10693,-0.23168 0.10692,-0.28514 0.17821,-0.5881 0.0713,-0.32078 0.16039,-0.62375 0.0535,-0.17821 0.0891,-0.3386 0.0356,-0.17821 0.0891,-0.35643 0.19604,-0.55245 0.32079,-1.12274 0.12475,-0.57028 0.30296,-1.10491 0.0891,-0.2495 0.16039,-0.58811 0.0713,-0.35642 0.23168,-0.48117 0.12475,-0.0891 0.28514,-0.10693 0.16039,-0.0178 0.35642,-0.0178 h 0.94453 q 0.14257,0 0.30296,0 0.16039,0 0.26732,0.0356 0.17821,0.0713 0.19603,0.23168 0.0178,0.16039 -0.0535,0.35642 -0.12475,0.40989 -0.2495,0.80196 -0.10692,0.37425 -0.24949,0.78414 -0.42772,1.30095 -0.8376,2.61973 -0.39207,1.30095 -0.81978,2.6019 -0.0891,0.28514 -0.17822,0.57028 -0.0713,0.26732 -0.16039,0.55246 -0.0713,0.19604 -0.14257,0.35643 -0.0535,0.14257 -0.23167,0.21385 -0.17822,0.0891 -0.46336,0.0713 -0.28514,-0.0178 -0.51681,-0.0178 -0.28514,0 -0.71286,0.0178 -0.42771,0 -0.60592,-0.0891 -0.10693,-0.0891 -0.16039,-0.19603 -0.0535,-0.12475 -0.0891,-0.26732 -0.0891,-0.2495 -0.14257,-0.48118 -0.0356,-0.24949 -0.10692,-0.49899 -0.0535,-0.16039 -0.0891,-0.32079 -0.0356,-0.17821 -0.10693,-0.35642 -0.16039,-0.51682 -0.28514,-1.06928 -0.10693,-0.55246 -0.28514,-1.08709 -0.10693,-0.32079 -0.17821,-0.67721 -0.0713,-0.35643 -0.28514,-0.57028 -0.17821,0 -0.23168,0.14257 -0.0356,0.12475 -0.0891,0.26732 -0.12475,0.35642 -0.19604,0.71285 -0.0535,0.35642 -0.17821,0.71285 -0.19604,0.64156 -0.33861,1.31877 -0.12474,0.65939 -0.32078,1.30095 -0.0356,0.12475 -0.0713,0.28514 -0.0357,0.1604 -0.0713,0.30297 -0.0356,0.14257 -0.10693,0.26732 -0.0535,0.12474 -0.14257,0.19603 -0.0891,0.0713 -0.24949,0.0891 -0.1604,0 -0.35643,0 h -0.94453 -0.51681 q -0.10693,-0.0178 -0.19604,-0.0356 -0.0891,-0.0178 -0.16039,-0.0535 -0.12475,-0.0891 -0.17821,-0.2495 -0.0535,-0.16039 -0.10693,-0.32078 -0.0891,-0.26732 -0.17821,-0.55246 -0.0891,-0.28514 -0.17822,-0.57028 -0.44553,-1.31878 -0.85542,-2.63755 -0.39207,-1.31877 -0.81978,-2.63755 -0.12474,-0.35642 -0.23167,-0.69503 -0.10693,-0.3386 -0.21386,-0.67721 -0.0356,-0.10692 -0.0891,-0.28514 -0.0357,-0.19603 0.0356,-0.30296 0.0535,-0.0713 0.23168,-0.14257 0.10692,0 0.14257,-0.0178 z" style="font-style:normal;font-variant:normal;font-weight:bold;font-stretch:normal;font-size:17.8212738px;line-height:11.13833237px;font-family:'Alte Haas Grotesk';-inkscape-font-specification:'Alte Haas Grotesk, Bold';font-variant-ligatures:normal;font-variant-caps:normal;font-variant-numeric:normal;font-feature-settings:normal;text-align:start;letter-spacing:0px;word-spacing:0px;writing-mode:lr-tb;text-anchor:start;fill:#000000;fill-opacity:1;stroke:none;stroke-width:0.44553334px;stroke-linecap:butt;stroke-linejoin:miter;stroke-opacity:1" id="path8658"/>
    <path d="m -20.550662,156.75482 q 0.19604,0 0.33861,0.0357 0.16039,0.0356 0.24949,0.16039 0.10693,0.14257 0.10693,0.49899 0,0.33861 0,0.60593 0,0.19603 0,0.44553 0.0178,0.2495 -0.0535,0.39207 -0.0713,0.12475 -0.21386,0.16039 -0.12475,0.0356 -0.30296,0.0356 -0.16039,0 -0.35642,-0.0178 -0.17822,-0.0178 -0.33861,0.0178 -0.12475,0.0356 -0.2495,0.0535 -0.12474,0 -0.23167,0.0356 -0.28514,0.0891 -0.57028,0.26732 -0.28514,0.16039 -0.44554,0.37424 -0.0891,0.14257 -0.19603,0.30297 -0.0891,0.14257 -0.17821,0.30296 -0.0535,0.14257 -0.10693,0.30296 -0.0356,0.14257 -0.0713,0.28514 -0.0357,0.12475 -0.0357,0.26732 0,0.12475 -0.0356,0.2495 -0.0178,0.0713 -0.0178,0.14257 0.0178,0.0535 0,0.10692 v 0.28514 q -0.0356,0.12475 -0.0178,0.28514 0.0178,0.14257 0.0178,0.28515 v 1.14056 1.5148 q 0,0.23168 -0.0178,0.42772 -0.0178,0.19603 -0.10693,0.32078 -0.0356,0.0535 -0.12475,0.0891 -0.0713,0.0178 -0.16039,0.0356 h -0.0891 q -0.0891,0.0178 -0.19603,0.0178 -0.10693,0 -0.19603,0 h -0.76632 q -0.10693,-0.0178 -0.23168,-0.0178 -0.10692,0 -0.23167,0 -0.0891,-0.0356 -0.17822,-0.0535 -0.0891,-0.0356 -0.12474,-0.12475 -0.0713,-0.0891 -0.0891,-0.24949 0,-0.17822 0,-0.35643 v -1.21185 -5.02559 -1.31878 q 0,-0.17821 0,-0.3386 0,-0.17822 0.0713,-0.28514 0.0891,-0.14257 0.26732,-0.17822 0.17822,-0.0356 0.42771,-0.0356 h 0.90889 q 0.21385,0 0.37425,0.0356 0.16039,0.0178 0.24949,0.1604 0.0535,0.0891 0.0535,0.24949 0.0178,0.16039 0.0356,0.32079 0.0178,0.14257 0.0535,0.26732 0.0535,0.12474 0.17822,0.12474 0.0356,-0.0356 0.0713,-0.0356 0.0356,0 0.0713,-0.0356 0.10692,-0.0891 0.17821,-0.19604 0.0891,-0.12474 0.21385,-0.21385 0.0713,-0.0535 0.12475,-0.10693 0.0535,-0.0713 0.12475,-0.12475 0.16039,-0.10692 0.32079,-0.21385 0.17821,-0.10693 0.35642,-0.19604 0.17821,-0.0713 0.35643,-0.12475 0.19603,-0.0535 0.39206,-0.10692 0.0535,-0.0178 0.19604,0 0.16039,0 0.19603,-0.0357 z" style="font-style:normal;font-variant:normal;font-weight:bold;font-stretch:normal;font-size:17.8212738px;line-height:11.13833237px;font-family:'Alte Haas Grotesk';-inkscape-font-specification:'Alte Haas Grotesk, Bold';font-variant-ligatures:normal;font-variant-caps:normal;font-variant-numeric:normal;font-feature-settings:normal;text-align:start;letter-spacing:0px;word-spacing:0px;writing-mode:lr-tb;text-anchor:start;fill:#000000;fill-opacity:1;stroke:none;stroke-width:0.44553334px;stroke-linecap:butt;stroke-linejoin:miter;stroke-opacity:1" id="path7472"/>
    <path d="m -18.144782,153.47571 h 1.30095 q 0.19604,0 0.35643,0.0178 0.16039,0.0178 0.2495,0.10693 0.14257,0.16039 0.12474,0.51682 0,0.35642 0,0.65938 v 3.0118 1.0871 q 0,0.12475 -0.0178,0.26732 -0.0178,0.14257 0.0178,0.26731 v 0.1604 q 0.0356,0.0891 0.0535,0.19603 0.0178,0.0891 0.10693,0.12475 0.0535,0.0356 0.14257,0.0178 0.0891,-0.0356 0.12474,-0.0713 0.17822,-0.12475 0.30297,-0.28515 0.14257,-0.16039 0.28514,-0.30296 0.14257,-0.14257 0.30296,-0.28514 0.16039,-0.16039 0.28514,-0.3386 0.0535,-0.0356 0.12475,-0.10693 0.0891,-0.0891 0.17821,-0.17821 0.0891,-0.10693 0.17821,-0.19604 l 0.40989,-0.40989 q 0.0356,-0.0713 0.0891,-0.10692 0.0713,-0.0535 0.12475,-0.12475 0.14257,-0.17821 0.30296,-0.30296 0.17821,-0.14257 0.42771,-0.19604 0.0891,-0.0178 0.2495,-0.0178 0.0713,-0.0178 0.14257,0 0.0713,0 0.16039,0 h 0.5881 q 0.14257,0 0.33861,-0.0178 0.21385,-0.0178 0.35642,0.0178 h 0.19604 q 0.0891,0.0356 0.17821,0.0535 0.0891,0 0.12475,0.0713 0.0356,0.0535 0,0.14257 -0.0178,0.0891 -0.0535,0.12475 -0.10692,0.17821 -0.26732,0.32078 -0.16039,0.12475 -0.30296,0.26732 -0.12475,0.12475 -0.2495,0.2495 -0.10692,0.12475 -0.24949,0.23168 -0.0891,0.0713 -0.16039,0.16039 -0.0535,0.0713 -0.14258,0.14257 -0.0891,0.0535 -0.16039,0.14257 -0.0713,0.0891 -0.16039,0.16039 l -0.67721,0.67721 q -0.12475,0.10693 -0.23167,0.21385 -0.0891,0.0891 -0.17822,0.23168 -0.0356,0.0535 -0.0713,0.14257 -0.0356,0.0713 0,0.16039 0.0356,0.19603 0.12475,0.32078 0.10693,0.12475 0.19603,0.26732 0.14257,0.19604 0.2495,0.39207 0.12475,0.19603 0.26732,0.39207 l 1.87123,2.83358 q 0.17822,0.2495 0.33861,0.499 0.17821,0.2495 0.3207796,0.49899 0.0535,0.0891 0.0535,0.21386 0.0178,0.12475 -0.0713,0.19603 -0.0713,0.0356 -0.1425696,0.0356 -0.0713,0 -0.16039,0.0356 -0.0713,0.0178 -0.16039,0.0178 -0.0891,-0.0178 -0.17822,-0.0178 h -0.69503 q -0.28514,0 -0.67721,0.0178 -0.39206,0 -0.5881,-0.0891 -0.19603,-0.0891 -0.3386,-0.32078 -0.14257,-0.2495 -0.26732,-0.44553 -0.30296,-0.48118 -0.60592,-0.96235 -0.30297,-0.499 -0.60593,-0.98017 -0.14257,-0.23168 -0.28514,-0.46335 -0.12475,-0.23168 -0.28514,-0.44554 -0.0356,-0.0535 -0.12475,-0.14257 -0.0891,-0.0891 -0.19603,-0.0535 -0.16039,0.0356 -0.2495,0.10693 -0.0713,0.0713 -0.16039,0.16039 -0.14257,0.10693 -0.26732,0.2495 -0.12475,0.14257 -0.19603,0.3386 -0.0356,0.14257 -0.0356,0.32078 0,0.1604 0,0.32079 v 1.10492 q 0,0.12474 0,0.28514 0.0178,0.14257 0.0178,0.30296 0,0.16039 -0.0178,0.30296 -0.0178,0.12475 -0.0713,0.19603 -0.0713,0.10693 -0.23168,0.16039 -0.14257,0.0356 -0.3386,0.0535 -0.19604,0 -0.40989,0 -0.21386,-0.0178 -0.37425,-0.0178 -0.19603,0 -0.42771,0.0178 -0.23167,0 -0.37425,-0.0535 -0.23167,-0.0891 -0.24949,-0.32078 -0.0178,-0.23167 -0.0178,-0.53464 v -2.04945 -7.14633 -1.65738 q 0,-0.19604 -0.0178,-0.40989 0,-0.21386 0.0713,-0.33861 0.0713,-0.12474 0.2495,-0.17821 0.0356,0 0.0713,0 0.0535,-0.0178 0.0891,-0.0178 z" style="font-style:normal;font-variant:normal;font-weight:bold;font-stretch:normal;font-size:17.8212738px;line-height:11.13833237px;font-family:'Alte Haas Grotesk';-inkscape-font-specification:'Alte Haas Grotesk, Bold';font-variant-ligatures:normal;font-variant-caps:normal;font-variant-numeric:normal;font-feature-settings:normal;text-align:start;letter-spacing:0px;word-spacing:0px;writing-mode:lr-tb;text-anchor:start;fill:#000000;fill-opacity:1;stroke:none;stroke-width:0.44553334px;stroke-linecap:butt;stroke-linejoin:miter;stroke-opacity:1" id="path7615"/>
    <g style="font-style: normal; font-variant: normal; font-weight: bold; font-stretch: normal; font-size: 17.8213px; line-height: 11.1383px; font-family: &quot;Alte Haas Grotesk&quot;; font-feature-settings: normal; text-align: start; letter-spacing: 0px; word-spacing: 0px; writing-mode: horizontal-tb; text-anchor: start; fill: rgb(173, 173, 173); fill-opacity: 1; stroke: none; stroke-width: 0.445533px; stroke-linecap: butt; stroke-linejoin: miter; stroke-opacity: 1;" transform="matrix(0.17227631,0,0,0.17227631,-83.32112,156.28016)" id="gear1">
      <path d="M 14.31 18.326 C 15.366 18.560000000000002 15.875 19.613 15.439 20.664 L 12.273 28.305 C 11.838 29.355999999999998 10.735 29.743 9.823 29.16 L 3.046 24.851 C 2.134 24.27 1.742 22.935 2.178 21.885 L 3.76 18.064 C 4.196 17.015 5.4159999999999995 16.346 6.4719999999999995 16.583 L 14.309999999999999 18.325999999999997" style="fill:#adadad;fill-opacity:1" id="path3207"/>
      <path d="M 9.822 34.84 C 10.735 34.258 11.841999999999999 34.644000000000005 12.274 35.694 L 15.439 43.337 C 15.874 44.388000000000005 15.366 45.441 14.31 45.676 L 6.472 47.419 C 5.415 47.654 4.196 46.986 3.76 45.938 L 2.178 42.117 C 1.742 41.065 2.134 39.73 3.046 39.15 L 9.822 34.839999999999996" style="fill:#adadad;fill-opacity:1" id="path6177"/>
      <path d="M 18.325 49.689 C 18.56 48.633 19.612 48.126 20.663 48.56 L 28.306 51.725 C 29.357 52.162 29.742 53.263 29.161 54.177 L 24.85 60.952 C 24.269000000000002 61.864999999999995 22.936 62.256 21.885 61.821 L 18.065 60.236999999999995 C 17.015 59.803 16.345000000000002 58.581999999999994 16.582 57.526999999999994 L 18.325 49.68899999999999" style="fill:#adadad;fill-opacity:1" id="path3445"/>
      <path d="M 34.839 54.18 C 34.259 53.268 34.644 52.16 35.693999999999996 51.728 L 43.336999999999996 48.563 C 44.388 48.128 45.44 48.637 45.675 49.692 L 47.418 57.531 C 47.652 58.586 46.986 59.807 45.936 60.243 L 42.115 61.825 C 41.064 62.260000000000005 39.729 61.869 39.149 60.956 L 34.839 54.18000000000001" style="fill:#adadad;fill-opacity:1" id="path7212"/>
      <path d="M 49.688 45.675 C 48.633 45.441 48.125 44.387 48.56 43.336 L 51.725 35.693 C 52.162 34.643 53.264 34.259 54.177 34.839 L 60.953 39.15 C 61.864000000000004 39.728 62.257000000000005 41.062999999999995 61.82 42.114999999999995 L 60.238 45.93599999999999 C 59.803 46.98499999999999 58.582 47.65299999999999 57.525999999999996 47.416999999999994 L 49.687999999999995 45.675" style="fill:#adadad;fill-opacity:1" id="path1271"/>
      <path d="M 54.18 29.16 C 53.268 29.741 52.16 29.356 51.729 28.305 L 48.564 20.662 C 48.128 19.611 48.637 18.56 49.692 18.323999999999998 L 57.531 16.581 C 58.586999999999996 16.346999999999998 59.808 17.012999999999998 60.243 18.064 L 61.825 21.886 C 62.262 22.935 61.869 24.27 60.958000000000006 24.849999999999998 L 54.18000000000001 29.159999999999997" style="fill:#adadad;fill-opacity:1" id="path7957"/>
      <path d="M 45.675 14.311 C 45.440999999999995 15.368 44.388 15.875 43.336999999999996 15.440999999999999 L 35.694 12.275 C 34.643 11.839 34.259 10.737 34.839 9.823 L 39.15 3.048 C 39.73 2.134 41.065 1.742 42.116 2.18 L 45.937 3.7620000000000005 C 46.986999999999995 4.196000000000001 47.653 5.417000000000001 47.418 6.472 L 45.675 14.311" style="fill:#adadad;fill-opacity:1" id="path4695"/>
      <path d="M 29.16 9.823 C 29.74 10.737 29.356 11.843 28.305 12.275 L 20.662 15.441 C 19.612 15.875 18.56 15.366000000000001 18.323999999999998 14.311 L 16.582 6.474 C 16.347 5.417 17.014 4.196 18.064 3.762 L 21.885 2.178 C 22.936 1.742 24.269000000000002 2.134 24.849 3.048 L 29.16 9.823" style="fill:#adadad;fill-opacity:1" id="path4144"/>
      <path d="M 32 6.688 C 18.02 6.688 6.687 18.022 6.687 32 C 6.687 45.978 18.02 57.312 32 57.312 C 45.979 57.312 57.313 45.978 57.313 32 C 57.312 18.022 45.979 6.688 32 6.688 M 32 47.938 C 23.198 47.938 16.061999999999998 40.802 16.061999999999998 32.001000000000005 C 16.061999999999998 23.199000000000005 23.197999999999997 16.063000000000002 32 16.063000000000002 C 40.8 16.063000000000002 47.938 23.199 47.938 32.001000000000005 C 47.937 40.802 40.8 47.938 32 47.938" style="fill:#adadad;fill-opacity:1" id="path2999"/>
    <animateTransform attributeName="transform" attributeType="auto" type="rotate" values="0 32 32;180 32 32" calcMode="spline" keyTimes="0;1" keySplines="0 0 1 1" dur="16s" begin="0s" repeatCount="indefinite" additive="sum" accumulate="none" fill="freeze" id="gear-rotation"/></g>
    <g transform="matrix(0.17227631,0,0,0.17227631,-37.743657,156.28016)" style="font-style: normal; font-variant: normal; font-weight: bold; font-stretch: normal; font-size: 17.8213px; line-height: 11.1383px; font-family: &quot;Alte Haas Grotesk&quot;; font-feature-settings: normal; text-align: start; letter-spacing: 0px; word-spacing: 0px; writing-mode: horizontal-tb; text-anchor: start; fill: rgb(173, 173, 173); fill-opacity: 1; stroke: none; stroke-width: 0.445533px; stroke-linecap: butt; stroke-linejoin: miter; stroke-opacity: 1;" id="gear2">
      <path d="M 14.31 18.326 C 15.366 18.560000000000002 15.875 19.613 15.439 20.664 L 12.273 28.305 C 11.838 29.355999999999998 10.735 29.743 9.823 29.16 L 3.046 24.851 C 2.134 24.27 1.742 22.935 2.178 21.885 L 3.76 18.064 C 4.196 17.015 5.4159999999999995 16.346 6.4719999999999995 16.583 L 14.309999999999999 18.325999999999997" style="fill:#adadad;fill-opacity:1" id="path9210"/>
      <path d="M 9.822 34.84 C 10.735 34.258 11.841999999999999 34.644000000000005 12.274 35.694 L 15.439 43.337 C 15.874 44.388000000000005 15.366 45.441 14.31 45.676 L 6.472 47.419 C 5.415 47.654 4.196 46.986 3.76 45.938 L 2.178 42.117 C 1.742 41.065 2.134 39.73 3.046 39.15 L 9.822 34.839999999999996" style="fill:#adadad;fill-opacity:1" id="path8569"/>
      <path d="M 18.325 49.689 C 18.56 48.633 19.612 48.126 20.663 48.56 L 28.306 51.725 C 29.357 52.162 29.742 53.263 29.161 54.177 L 24.85 60.952 C 24.269000000000002 61.864999999999995 22.936 62.256 21.885 61.821 L 18.065 60.236999999999995 C 17.015 59.803 16.345000000000002 58.581999999999994 16.582 57.526999999999994 L 18.325 49.68899999999999" style="fill:#adadad;fill-opacity:1" id="path2858"/>
      <path d="M 34.839 54.18 C 34.259 53.268 34.644 52.16 35.693999999999996 51.728 L 43.336999999999996 48.563 C 44.388 48.128 45.44 48.637 45.675 49.692 L 47.418 57.531 C 47.652 58.586 46.986 59.807 45.936 60.243 L 42.115 61.825 C 41.064 62.260000000000005 39.729 61.869 39.149 60.956 L 34.839 54.18000000000001" style="fill:#adadad;fill-opacity:1" id="path5844"/>
      <path d="M 49.688 45.675 C 48.633 45.441 48.125 44.387 48.56 43.336 L 51.725 35.693 C 52.162 34.643 53.264 34.259 54.177 34.839 L 60.953 39.15 C 61.864000000000004 39.728 62.257000000000005 41.062999999999995 61.82 42.114999999999995 L 60.238 45.93599999999999 C 59.803 46.98499999999999 58.582 47.65299999999999 57.525999999999996 47.416999999999994 L 49.687999999999995 45.675" style="fill:#adadad;fill-opacity:1" id="path8059"/>
      <path d="M 54.18 29.16 C 53.268 29.741 52.16 29.356 51.729 28.305 L 48.564 20.662 C 48.128 19.611 48.637 18.56 49.692 18.323999999999998 L 57.531 16.581 C 58.586999999999996 16.346999999999998 59.808 17.012999999999998 60.243 18.064 L 61.825 21.886 C 62.262 22.935 61.869 24.27 60.958000000000006 24.849999999999998 L 54.18000000000001 29.159999999999997" style="fill:#adadad;fill-opacity:1" id="path2194"/>
      <path d="M 45.675 14.311 C 45.440999999999995 15.368 44.388 15.875 43.336999999999996 15.440999999999999 L 35.694 12.275 C 34.643 11.839 34.259 10.737 34.839 9.823 L 39.15 3.048 C 39.73 2.134 41.065 1.742 42.116 2.18 L 45.937 3.7620000000000005 C 46.986999999999995 4.196000000000001 47.653 5.417000000000001 47.418 6.472 L 45.675 14.311" style="fill:#adadad;fill-opacity:1" id="path9492"/>
      <path d="M 29.16 9.823 C 29.74 10.737 29.356 11.843 28.305 12.275 L 20.662 15.441 C 19.612 15.875 18.56 15.366000000000001 18.323999999999998 14.311 L 16.582 6.474 C 16.347 5.417 17.014 4.196 18.064 3.762 L 21.885 2.178 C 22.936 1.742 24.269000000000002 2.134 24.849 3.048 L 29.16 9.823" style="fill:#adadad;fill-opacity:1" id="path4559"/>
      <path d="M 32 6.688 C 18.02 6.688 6.687 18.022 6.687 32 C 6.687 45.978 18.02 57.312 32 57.312 C 45.979 57.312 57.313 45.978 57.313 32 C 57.312 18.022 45.979 6.688 32 6.688 M 32 47.938 C 23.198 47.938 16.061999999999998 40.802 16.061999999999998 32.001000000000005 C 16.061999999999998 23.199000000000005 23.197999999999997 16.063000000000002 32 16.063000000000002 C 40.8 16.063000000000002 47.938 23.199 47.938 32.001000000000005 C 47.937 40.802 40.8 47.938 32 47.938" style="fill:#adadad;fill-opacity:1" id="path5619"/>
    <animateTransform attributeName="transform" attributeType="auto" type="rotate" values="0 32 32;-180 32 32" calcMode="spline" keyTimes="0;1" keySplines="0 0 1 1" dur="16s" begin="0s" repeatCount="indefinite" additive="sum" accumulate="none" fill="freeze" id="gear-reverse-rotation"/></g>
    
  <g id="candle-flame">
      <path id="path4753" d="m -162.95077,150.68782 c -1.04134,2.13321 -2.23008,5.72168 -0.007,5.73631 2.55778,0.0169 0.007,-5.73631 0.007,-5.73631 z" style="fill:#c78545;fill-opacity:1;fill-rule:evenodd;stroke:#000000;stroke-width:0;stroke-linecap:butt;stroke-linejoin:miter;stroke-miterlimit:4;stroke-dasharray:none;stroke-opacity:1"/>
      
    <path id="path4753-3" d="m -162.98671,153.45802 c -0.48769,0.99905 -1.04442,2.67966 -0.003,2.68651 1.19789,0.008 0.003,-2.68651 0.003,-2.68651 z" style="fill:#d7d752;fill-opacity:1;fill-rule:evenodd;stroke:#000000;stroke-width:0;stroke-linecap:butt;stroke-linejoin:miter;stroke-miterlimit:4;stroke-dasharray:none;stroke-opacity:1"/><animate attributeType="auto" attributeName="opacity" values="1;0.7;0.9;1;0.5;1" calcMode="spline" keyTimes="0;0.1;0.7;0.95;1;1" keySplines=".25 0 .75 .75;.25 0 .75 .75;.25 0 .75 .75;.25 0 .75 .75;.25 0 .75 .75" dur="1s" begin="0s" repeatCount="indefinite" additive="replace" accumulate="none" fill="freeze" id="flame-flicker"/></g></g>
</svg>
